<svg xmlns="http://www.w3.org/2000/svg" enable-background="new 0 0 70 70" viewBox="0 0 70 70" id="certificate"><path fill="#a3cbe4" d="M52.03,44.476l-0.01,0.02c-0.66,0.7-0.97,1.669-0.86,2.629l0.01,0.01c0.2,1.709-0.95,3.288-2.639,3.608v0.01
		c-0.96,0.18-1.779,0.78-2.249,1.619v0.01c-0.84,1.509-2.699,2.109-4.258,1.379c-0.44-0.21-0.92-0.31-1.389-0.31
		c-0.47,0-0.95,0.1-1.389,0.31c-0.45,0.21-0.92,0.31-1.379,0.31c-1.159,0-2.279-0.62-2.879-1.699
		c-0.47-0.839-1.289-1.439-2.239-1.629h-0.01c-1.689-0.33-2.839-1.909-2.629-3.618c0.02-0.14,0.03-0.27,0.03-0.41
		c0-0.82-0.31-1.619-0.88-2.229h-0.01c-1.169-1.259-1.169-3.218,0-4.478h0.01c0.66-0.71,0.97-1.679,0.85-2.639v-0.01
		c-0.21-1.709,0.94-3.288,2.629-3.618h0.01c0.95-0.19,1.769-0.78,2.239-1.629c0.6-1.08,1.719-1.699,2.879-1.699
		c0.46,0,0.93,0.1,1.379,0.31c0.44,0.2,0.92,0.31,1.389,0.31c0.47,0,0.95-0.11,1.389-0.31c0.45-0.21,0.93-0.31,1.389-0.31
		c1.159,0,2.269,0.61,2.869,1.689v0.01c0.47,0.85,1.299,1.439,2.249,1.629h0.01c1.689,0.33,2.839,1.909,2.629,3.618v0.01
		c-0.12,0.96,0.19,1.919,0.85,2.629l0.01,0.01C53.2,41.268,53.2,43.227,52.03,44.476z"></path><path fill="#fff" d="M66.91,8.897v38.212c0,3.258-2.649,5.887-5.897,5.887H47.809l-0.62-1.659c0.39-0.28,0.85-0.49,1.339-0.58
		v-0.01c1.689-0.32,2.839-1.899,2.639-3.608l-0.01-0.01c0-0.04-0.01-0.09-0.01-0.13c-0.07-0.92,0.24-1.829,0.87-2.499l0.01-0.02
		c1.169-1.249,1.169-3.208,0-4.468l-0.01-0.01c-0.66-0.71-0.97-1.669-0.85-2.629v-0.01c0.21-1.709-0.94-3.288-2.629-3.618h-0.01
		c-0.95-0.19-1.779-0.78-2.249-1.629v-0.01c-0.6-1.079-1.709-1.689-2.869-1.689c-0.46,0-0.94,0.1-1.389,0.31
		c-0.44,0.2-0.92,0.31-1.389,0.31c-0.47,0-0.95-0.11-1.389-0.31c-0.45-0.21-0.92-0.31-1.379-0.31c-1.159,0-2.279,0.62-2.879,1.699
		c-0.47,0.85-1.289,1.439-2.239,1.629h-0.01c-1.689,0.33-2.839,1.909-2.629,3.618v0.01c0.12,0.96-0.19,1.929-0.85,2.639h-0.01
		c-1.169,1.26-1.169,3.219,0,4.478h0.01c0.57,0.61,0.88,1.409,0.88,2.229c0,0.1,0,0.19-0.02,0.28c0,0.04,0,0.09-0.01,0.13
		c-0.21,1.709,0.94,3.288,2.629,3.618h0.01c0.4,0.08,0.78,0.23,1.109,0.45l-0.67,1.799H8.987c-3.258,0-5.897-2.629-5.897-5.887
		V8.897C3.09,5.639,5.729,3,8.987,3h52.025C64.261,3,66.91,5.639,66.91,8.897z"></path><path d="M32.745 50.745c.4.08.78.23 1.11.45l-.67 1.8h-24.2c-2.91 0-5.31-2.09-5.79-4.86h26.95c.24 1.29 1.24 2.35 2.59 2.61H32.745zM66.905 8.895v38.21c0 3.26-2.64 5.89-5.89 5.89h-13.21l-.62-1.66c.39-.28.85-.49 1.34-.58v-.01c1.35-.26 2.36-1.32 2.6-2.61h0c6.302 0 11.41-5.108 11.41-11.41V3.205C65.055 3.875 66.905 6.165 66.905 8.895z" opacity=".1"></path><path fill="#fff" d="M60.913,13.925v28.147c-2.729,0-4.938,2.209-4.938,4.928h-4.828c-0.07-0.92,0.24-1.829,0.87-2.499l0.01-0.02
		c1.169-1.249,1.169-3.208,0-4.468l-0.01-0.01c-0.66-0.71-0.97-1.669-0.85-2.629v-0.01c0.21-1.709-0.94-3.288-2.629-3.618h-0.01
		c-0.95-0.19-1.779-0.78-2.249-1.629v-0.01c-0.6-1.079-1.709-1.689-2.869-1.689c-0.46,0-0.94,0.1-1.389,0.31
		c-0.44,0.2-0.92,0.31-1.389,0.31c-0.47,0-0.95-0.11-1.389-0.31c-0.45-0.21-0.92-0.31-1.379-0.31c-1.159,0-2.279,0.62-2.879,1.699
		c-0.47,0.85-1.289,1.439-2.239,1.629h-0.01c-1.689,0.33-2.839,1.909-2.629,3.618v0.01c0.12,0.96-0.19,1.929-0.85,2.639h-0.01
		c-1.169,1.26-1.169,3.219,0,4.478h0.01c0.57,0.61,0.88,1.409,0.88,2.229c0,0.1,0,0.19-0.02,0.28H14.025
		c0-2.719-2.209-4.928-4.938-4.928V13.925c2.729,0,4.938-2.209,4.938-4.928h41.95C55.975,11.716,58.184,13.925,60.913,13.925z"></path><path fill="#a3cbe4" d="M50.598,14.535v4.908c0,0.849-0.69,1.539-1.539,1.539H20.942c-0.86,0-1.549-0.69-1.549-1.539v-4.908
			c0-0.86,0.69-1.549,1.549-1.549h28.117C49.908,12.986,50.598,13.675,50.598,14.535z"></path><path d="M50.595,14.535v4.91c0,0.85-0.69,1.54-1.54,1.54h-28.11c-0.86,0-1.55-0.69-1.55-1.54v-0.25h27.88
			c0.85,0,1.53-0.69,1.53-1.54v-4.67h0.25C49.905,12.985,50.595,13.675,50.595,14.535z" opacity=".1"></path><path fill="#fff" d="M46.533,42.247c0,3.248-2.639,5.887-5.897,5.887c-3.248,0-5.887-2.639-5.887-5.887
		c0-3.258,2.639-5.897,5.887-5.897C43.894,36.35,46.533,38.989,46.533,42.247z"></path><path d="M46.535,42.245c0,3.25-2.64,5.89-5.9,5.89c-2.19,0-4.11-1.2-5.12-2.98c0.86,0.49,1.85,0.77,2.91,0.77
		c3.26,0,5.9-2.64,5.9-5.89c0-1.06-0.28-2.05-0.77-2.9C45.335,38.135,46.535,40.045,46.535,42.245z" opacity=".1"></path><path fill="#fff" d="M41.685,53.625l-0.88,2.35l-0.31,0.83l-3.69,9.88c-0.14,0.38-0.67,0.43-0.88,0.07l-1.96-3.3
		c-0.12-0.19-0.36-0.28-0.58-0.21l-3.62,1.2c-0.4,0.13-0.76-0.25-0.62-0.63l3.76-10.07l0.95-2.55c0.47,0.29,0.86,0.69,1.13,1.18
		c0.6,1.08,1.72,1.7,2.88,1.7c0.46,0,0.93-0.1,1.38-0.31c0.44-0.21,0.92-0.31,1.39-0.31C40.985,53.455,41.345,53.515,41.685,53.625z
		"></path><path fill="#fff" d="M51.245,64.445l-3.63-1.2c-0.22-0.07-0.46,0.02-0.58,0.21l-1.96,3.3c-0.21,0.36-0.74,0.31-0.88-0.07l-3.7-9.88
		l0.31-0.83l0.88-2.35c0.12,0.04,0.23,0.09,0.34,0.14c1.56,0.73,3.42,0.13,4.26-1.38v-0.01c0.23-0.41,0.54-0.76,0.91-1.04l1.01,2.69
		l3.66,9.79C52.005,64.195,51.635,64.575,51.245,64.445z"></path><path d="M48.205,54.025c-1.07,1.59-2.87,2.55-4.79,2.55c-0.85,0-1.68-0.19-2.45-0.55c-0.05-0.02-0.1-0.04-0.16-0.05
		c-0.05-0.01-0.11-0.02-0.17-0.02c-0.11,0-0.22,0.02-0.31,0.06c-0.8,0.37-1.62,0.56-2.46,0.56c-2.04,0-3.93-1.08-4.96-2.83
		l0.95-2.55c0.47,0.29,0.86,0.69,1.13,1.18c0.6,1.08,1.72,1.7,2.88,1.7c0.46,0,0.93-0.1,1.38-0.31c0.44-0.21,0.92-0.31,1.39-0.31
		c0.35,0,0.71,0.06,1.05,0.17c0.12,0.04,0.23,0.09,0.34,0.14c1.56,0.73,3.42,0.13,4.26-1.38v-0.01c0.23-0.41,0.54-0.76,0.91-1.04
		L48.205,54.025z" opacity=".1"></path><path fill="none" stroke="#2f434c" stroke-linecap="round" stroke-linejoin="round" stroke-miterlimit="10" stroke-width="1.75" d="M66.91,8.897v38.212c0,3.258-2.649,5.887-5.897,5.887H47.809l-0.62-1.659c0.39-0.28,0.85-0.49,1.339-0.58
		v-0.01c1.689-0.32,2.839-1.899,2.639-3.608l-0.01-0.01c0-0.04-0.01-0.09-0.01-0.13c-0.07-0.92,0.24-1.829,0.87-2.499l0.01-0.02
		c1.169-1.249,1.169-3.208,0-4.468l-0.01-0.01c-0.66-0.71-0.97-1.669-0.85-2.629v-0.01c0.21-1.709-0.94-3.288-2.629-3.618h-0.01
		c-0.95-0.19-1.779-0.78-2.249-1.629v-0.01c-0.6-1.079-1.709-1.689-2.869-1.689c-0.46,0-0.94,0.1-1.389,0.31
		c-0.44,0.2-0.92,0.31-1.389,0.31c-0.47,0-0.95-0.11-1.389-0.31c-0.45-0.21-0.92-0.31-1.379-0.31c-1.159,0-2.279,0.62-2.879,1.699
		c-0.47,0.85-1.289,1.439-2.239,1.629h-0.01c-1.689,0.33-2.839,1.909-2.629,3.618v0.01c0.12,0.96-0.19,1.929-0.85,2.639h-0.01
		c-1.169,1.26-1.169,3.219,0,4.478h0.01c0.57,0.61,0.88,1.409,0.88,2.229c0,0.1,0,0.19-0.02,0.28c0,0.04,0,0.09-0.01,0.13
		c-0.21,1.709,0.94,3.288,2.629,3.618h0.01c0.4,0.08,0.78,0.23,1.109,0.45l-0.67,1.799H8.987c-3.258,0-5.897-2.629-5.897-5.887
		V8.897C3.09,5.639,5.729,3,8.987,3h52.025C64.261,3,66.91,5.639,66.91,8.897z"></path><path fill="none" stroke="#2f434c" stroke-linecap="round" stroke-linejoin="round" stroke-miterlimit="10" stroke-width="1.75" d="M60.913,13.925v28.147c-2.729,0-4.938,2.209-4.938,4.928h-4.828c-0.07-0.92,0.24-1.829,0.87-2.499l0.01-0.02
		c1.169-1.249,1.169-3.208,0-4.468l-0.01-0.01c-0.66-0.71-0.97-1.669-0.85-2.629v-0.01c0.21-1.709-0.94-3.288-2.629-3.618h-0.01
		c-0.95-0.19-1.779-0.78-2.249-1.629v-0.01c-0.6-1.079-1.709-1.689-2.869-1.689c-0.46,0-0.94,0.1-1.389,0.31
		c-0.44,0.2-0.92,0.31-1.389,0.31c-0.47,0-0.95-0.11-1.389-0.31c-0.45-0.21-0.92-0.31-1.379-0.31c-1.159,0-2.279,0.62-2.879,1.699
		c-0.47,0.85-1.289,1.439-2.239,1.629h-0.01c-1.689,0.33-2.839,1.909-2.629,3.618v0.01c0.12,0.96-0.19,1.929-0.85,2.639h-0.01
		c-1.169,1.26-1.169,3.219,0,4.478h0.01c0.57,0.61,0.88,1.409,0.88,2.229c0,0.1,0,0.19-0.02,0.28H14.025
		c0-2.719-2.209-4.928-4.938-4.928V13.925c2.729,0,4.938-2.209,4.938-4.928h41.95C55.975,11.716,58.184,13.925,60.913,13.925z"></path><line x1="17.09" x2="52.907" y1="27.173" y2="27.173" fill="none" stroke="#2f434c" stroke-linecap="round" stroke-linejoin="round" stroke-miterlimit="10" stroke-width="1.75"></line><line x1="17.09" x2="27.306" y1="33.491" y2="33.491" fill="none" stroke="#2f434c" stroke-linecap="round" stroke-linejoin="round" stroke-miterlimit="10" stroke-width="1.75"></line><path fill="none" stroke="#2f434c" stroke-linecap="round" stroke-linejoin="round" stroke-miterlimit="10" stroke-width="1.75" d="M46.533 42.247c0 3.248-2.639 5.887-5.897 5.887-3.248 0-5.887-2.639-5.887-5.887 0-3.258 2.639-5.897 5.887-5.897C43.894 36.35 46.533 38.989 46.533 42.247zM41.685 53.622l-4.878 13.064c-.14.38-.67.43-.88.07l-1.959-3.298c-.12-.19-.36-.28-.58-.21l-3.628 1.2c-.4.13-.76-.25-.62-.63l4.718-12.624c.47.29.86.69 1.129 1.179.6 1.08 1.719 1.699 2.879 1.699.46 0 .93-.1 1.379-.31.44-.21.92-.31 1.389-.31C40.986 53.452 41.345 53.512 41.685 53.622z"></path><path fill="none" stroke="#2f434c" stroke-linecap="round" stroke-linejoin="round" stroke-miterlimit="10" stroke-width="1.75" d="M51.241,64.447l-3.628-1.2c-0.22-0.07-0.46,0.02-0.58,0.21l-1.959,3.298c-0.21,0.36-0.74,0.31-0.88-0.07
		L40.496,56.8l1.189-3.178c0.12,0.04,0.23,0.09,0.34,0.14c1.559,0.73,3.418,0.13,4.258-1.379v-0.01c0.23-0.41,0.54-0.76,0.91-1.04
		l4.668,12.484C52,64.197,51.631,64.577,51.241,64.447z"></path></svg>