<svg xmlns="http://www.w3.org/2000/svg" enable-background="new 0 0 152.837 241.349" viewBox="0 0 152.837 241.349" id="a-grade"><path d="M36.985 230.974c0 5.729 4.646 10.375 10.377 10.375 5.728 0 10.374-4.646 10.374-10.375v-49.417h4.113v49.417c0 5.729 4.647 10.375 10.377 10.375 5.729 0 10.375-4.646 10.375-10.375v-68.168H36.985V230.974zM38.883 75.056c0 11.549 9.36 20.912 20.909 20.912 11.551 0 20.91-9.363 20.91-20.912s-9.359-20.911-20.91-20.911C48.243 54.145 38.883 63.507 38.883 75.056zM71.989 83.25c-6.267 12.484-20.757 7.292-23.394.188C58.263 87.938 71.989 83.25 71.989 83.25z"></path><path d="M142.196,35.792l-37.577,9.113l1.282,5.289c-0.08,0.261-0.15,0.527-0.201,0.803c-3.217,17.481-11.582,30.846-19.213,39.875
		c-3.81,4.508-7.419,7.91-10.031,10.148c-0.032,0.027-0.06,0.051-0.091,0.078H43.221c-2.782-2.378-6.725-6.09-10.841-11.084
		C24.945,80.999,17,67.932,13.885,50.996c-0.701-3.803-4.352-6.316-8.152-5.615c-3.803,0.701-6.316,4.35-5.615,8.152
		c3.783,20.518,13.544,36.029,22.286,46.375c6.011,7.104,11.564,11.825,14.581,14.173v43.725h45.616V114.08
		c3.017-2.349,8.569-7.068,14.579-14.172c5.144-6.087,10.631-13.976,15.055-23.606l4.956,20.435l31.952-7.75l3.694-9.336
		l-0.074-0.309L142.196,35.792z M118.663,94.321l-11.628-47.943l33.688-8.172l10.02,41.298l-3.078,7.784L118.663,94.321z"></path><path d="M119.26 64.799c.114.211.354.347.715.408.361.06.634.041.814-.059.131-.07.259-.193.386-.37.126-.176.212-.744.261-1.706.047-.962.057-1.57.025-1.828.156.033.332-.004.529-.111.109-.061.226-.152.346-.276.471-.49 1.123-1.086 1.958-1.788.833-.701 1.387-1.127 1.658-1.273.025-.014.043-.01.054.01.053.096.464.436 1.234 1.02.771.586 1.475.991 2.111 1.219.635.229 1.145.238 1.527.03.275-.149.464-.374.561-.673.1-.298.073-.585-.077-.861-.082-.151-.177-.256-.283-.315-.107-.06-.363-.148-.768-.268-.808-.238-1.789-.798-2.942-1.681-1.154-.882-2.955-2.475-5.401-4.782-.031-.14-.099-.308-.206-.505-.145-.266-.284-.408-.419-.426-.311-.117-.681-.061-1.109.172-.266.145-.434.456-.503.934-.069.479-.109 2.068-.118 4.772-.008 1.341-.07 2.724-.188 4.151C119.207 63.199 119.152 64.602 119.26 64.799zM121.758 53.984c1.581 1.492 2.514 2.355 2.795 2.586-.202.156-.401.316-.598.482-.805.679-1.311 1.09-1.519 1.236-.308.226-.604.452-.892.68l-.072-5.24C121.518 53.763 121.613 53.848 121.758 53.984zM130.505 54.703c.237.06.464.03.682-.087l.579-.462c.172-.139.59-.367 1.254-.682l.984 2.35c.161.297.322.469.486.518.162.049.402-.014.719-.186.272-.148.43-.287.473-.418.043-.131.038-.244-.014-.34-.053-.095-.088-.187-.109-.272-.029-.114-.297-.637-.804-1.567-.155-.286-.269-.565-.336-.835l1.351-.733c.116-.064.355-.171.716-.321.361-.15.587-.251.677-.3.459-.249.708-.506.747-.768l-.009-.161c-.238-.438-.49-.666-.758-.684-.268-.018-.655.111-1.163.389l-1.976 1.113-.254.127c-.051-.069-.089-.127-.113-.172l-.209-.385c-.052-.096-.182-.387-.389-.875-.211-.484-.376-.838-.496-1.059-.074-.137-.234-.273-.479-.411-.244-.138-.465-.153-.66-.046-.549.298-.598.861-.146 1.691.061.111.161.272.301.482.374.579.619.975.734 1.186.065.121.118.242.158.364l-.25.136-1.064.646c-.434.164-.725.287-.876.369-.171.092-.276.252-.315.48-.039.226-.021.41.055.551C130.1 54.523 130.268 54.643 130.505 54.703zM141.365 65.266c-7.604 1.018-15.095 3.534-22.25 6.25-1.354.514-.423 2.807.826 2.332 7.155-2.716 14.645-5.231 22.25-6.25C143.607 67.408 142.685 65.089 141.365 65.266zM143.698 72.598c-7.605 1.018-15.095 3.534-22.25 6.25-1.354.514-.424 2.807.826 2.332 7.156-2.716 14.646-5.231 22.25-6.25C145.94 74.74 145.017 72.421 143.698 72.598z"></path><polygon points="78.221 0 70.067 46.395 72.022 47.223 82.326 1.957"></polygon><polygon points="108.352 15.539 77.371 51.024 78.615 52.746 110.854 19.338"></polygon><polygon points="49.754 .613 45.205 .723 58.899 45.795 61.016 45.651"></polygon></svg>