<svg xmlns="http://www.w3.org/2000/svg" viewBox="0 0 48 48" id="coaching"><path fill="#bfbfbf" d="M33,47H19V43.46a3,3,0,0,1,2.41-2.94C24.66,39.87,23.2,40,28,40l2.59.52A3,3,0,0,1,33,43.46Z"></path><path fill="#bfbfbf" d="M26,40a4,4,0,0,1-4-4V35a4,4,0,0,1,8,0v1A4,4,0,0,1,26,40Z"></path><path fill="#424242" d="M44.78,39.54l-1.07-.22A5.55,5.55,0,0,0,45,35a5,5,0,0,0-10,0,5.49,5.49,0,0,0,1.29,4.32C35,39.58,34,39.67,33,40.83a5,5,0,0,0-3.29-1.51A5.55,5.55,0,0,0,31,35a5,5,0,0,0-10,0,5.49,5.49,0,0,0,1.29,4.32C21,39.58,20,39.67,19,40.83a5,5,0,0,0-3.29-1.51A5.55,5.55,0,0,0,17,35,5,5,0,0,0,7,35a5.49,5.49,0,0,0,1.29,4.32l-1.07.22A4,4,0,0,0,4,43.46V47a1,1,0,0,0,1,1H47a1,1,0,0,0,1-1V43.46A4,4,0,0,0,44.78,39.54ZM37,35a3,3,0,0,1,6,0v1a3,3,0,0,1-6,0ZM23,35a3,3,0,0,1,6,0v1a3,3,0,0,1-6,0ZM9,35a3,3,0,0,1,6,0v1a3,3,0,0,1-6,0ZM6,43.46a2,2,0,0,1,1.61-2L10.1,41c4.62,0,3.12-.14,6.29.5a2,2,0,0,1,1.61,2V46H6Zm14,0a2,2,0,0,1,1.61-2L24.1,41c4.62,0,3.12-.14,6.29.5a2,2,0,0,1,1.61,2V46H20ZM46,46H34V43.46a2,2,0,0,1,1.61-2L38.1,41c4.62,0,3.12-.14,6.29.5a2,2,0,0,1,1.61,2Z"></path><path fill="#fc6459" d="M16 15.46V20H0V15.46a3 3 0 0 1 2.41-2.94l1-.21a7 7 0 0 0 9.1 0l1 .21A3 3 0 0 1 16 15.46zM11.54 1.46A5 5 0 0 0 3.33 3.2C2.91 4.33 3 5.07 3 7A5 5 0 0 0 13 7C13 4.85 13.22 3.16 11.54 1.46zM11 7A3 3 0 0 1 5 7a9.58 9.58 0 0 1 .13-2.86A12.9 12.9 0 0 0 11 5.23z"></path><path fill="#bfbfbf" d="M27.29 24.29l-.29.3V18a3 3 0 0 0-3-3H19a1 1 0 0 0 0 2h5a1 1 0 0 1 1 1v6.59l-.29-.3a1 1 0 0 0-1.42 1.42c2.09 2.08 2.06 2.1 2.33 2.21a.92.92 0 0 0 .76 0c.25-.1.13 0 2.33-2.21a1 1 0 0 0-1.42-1.42zM13.29 24.29l-.29.3V23a1 1 0 0 0-2 0v1.59l-.29-.3a1 1 0 0 0-1.42 1.42c2.09 2.08 2.06 2.1 2.33 2.21a.92.92 0 0 0 .76 0c.25-.1.13 0 2.33-2.21a1 1 0 0 0-1.42-1.42zM42.71 24.29a1 1 0 0 0-1.42 0l-.29.3V11a5 5 0 0 0-5-5H19a1 1 0 0 0 0 2H36a3 3 0 0 1 3 3V24.59l-.29-.3a1 1 0 0 0-1.42 1.42C39.44 27.85 39.46 28 40 28s.58-.16 2.71-2.29A1 1 0 0 0 42.71 24.29z"></path></svg>